<?xml version="1.0" standalone="no"?>
<!DOCTYPE svg PUBLIC "-//W3C//DTD SVG 20010904//EN"
 "http://www.w3.org/TR/2001/REC-SVG-20010904/DTD/svg10.dtd">
<svg version="1.0" xmlns="http://www.w3.org/2000/svg"
 width="221.000000pt" height="228.000000pt" viewBox="0 0 221.000000 228.000000"
 preserveAspectRatio="xMidYMid meet">

<g transform="translate(0.000000,228.000000) scale(0.100000,-0.100000)"
fill="#000000" stroke="none">
<path d="M1 1758 c0 -477 2 -518 15 -469 31 116 96 218 201 317 57 54 64 63
57 88 -4 17 -22 37 -45 52 -22 13 -39 28 -39 33 0 13 79 90 129 124 25 17 71
43 104 59 l59 29 -24 19 -23 20 30 25 c96 81 298 172 455 206 l85 18 -502 0
-503 1 1 -522z"/>
<path d="M1310 2264 c76 -20 149 -59 220 -116 48 -38 68 -48 98 -48 21 0 64
-7 96 -15 181 -47 318 -178 356 -342 11 -49 14 -53 41 -53 16 0 31 0 35 1 3 0
16 -7 30 -15 l24 -16 0 310 0 310 -477 -1 c-438 0 -473 -2 -423 -15z"/>
<path d="M1010 2219 c-147 -17 -322 -80 -418 -149 l-43 -31 44 -34 c55 -42 92
-113 107 -205 6 -36 13 -153 17 -262 6 -187 7 -196 24 -185 17 11 18 28 16
237 -2 244 4 283 60 394 39 77 136 168 208 196 78 31 215 34 292 7 101 -35
185 -136 217 -259 13 -51 14 -53 62 -65 26 -6 50 -11 51 -9 2 1 -4 25 -12 53
-35 118 -148 237 -269 282 -54 20 -193 42 -251 40 -16 -1 -64 -5 -105 -10z"/>
<path d="M1074 2129 c-47 -18 -144 -91 -144 -108 0 -3 16 -15 36 -26 20 -11
52 -37 73 -60 32 -35 40 -40 75 -37 l38 3 -28 30 c-29 30 -29 31 -9 46 34 26
160 82 221 98 31 8 59 16 61 18 7 8 -43 35 -83 46 -63 18 -182 13 -240 -10z"/>
<path d="M1656 2006 c15 -27 33 -46 43 -46 31 0 139 -60 167 -93 15 -18 37
-55 50 -83 18 -42 28 -52 60 -62 21 -6 40 -10 42 -7 10 10 -33 108 -68 158
-65 90 -167 153 -277 172 l-43 7 26 -46z"/>
<path d="M1365 2025 c-80 -18 -145 -42 -167 -62 -17 -15 -16 -17 7 -57 33 -57
62 -169 74 -284 16 -158 34 -730 30 -967 l-4 -221 -31 -63 -31 -63 41 -30 c61
-45 136 -78 179 -78 20 0 37 3 37 6 0 3 -11 20 -24 37 -81 109 -115 279 -116
579 l0 147 38 10 c20 6 58 16 85 23 85 22 31 44 -63 25 -60 -12 -64 -3 -71
145 -3 73 -5 234 -5 358 2 192 5 232 20 273 18 48 77 120 106 129 13 4 12 11
-5 53 -11 27 -24 49 -30 51 -5 1 -37 -4 -70 -11z"/>
<path d="M886 1958 c-25 -39 -22 -52 15 -89 59 -60 74 -101 73 -204 -1 -137
-24 -187 -138 -301 -50 -50 -106 -102 -124 -115 l-33 -25 58 -24 c80 -32 106
-52 143 -110 61 -96 110 -289 110 -440 0 -83 11 -170 20 -170 9 0 15 141 14
335 0 116 -4 153 -23 215 -38 126 -98 214 -150 222 -13 1 -29 11 -35 20 -8 14
1 28 51 81 143 148 218 338 183 463 -14 49 -77 127 -121 149 -27 14 -29 14
-43 -7z"/>
<path d="M540 1946 c-96 -36 -260 -134 -260 -157 0 -5 12 -28 27 -52 15 -23
28 -43 28 -44 1 -2 26 11 57 27 39 21 63 44 84 77 22 35 46 56 88 79 l58 31
-24 26 c-22 24 -25 25 -58 13z"/>
<path d="M1705 1869 c4 -19 8 -34 9 -34 0 0 30 -10 66 -22 35 -12 67 -20 69
-17 7 6 -31 55 -60 76 -13 10 -39 21 -58 24 l-33 7 7 -34z"/>
<path d="M1123 1843 c-38 -7 -16 -33 29 -33 33 0 39 3 34 16 -3 9 -6 18 -6 20
0 5 -24 3 -57 -3z"/>
<path d="M614 1830 c-35 -14 -40 -32 -7 -24 15 4 32 10 36 14 14 12 -6 18 -29
10z"/>
<path d="M1454 1829 c-9 -16 4 -24 61 -39 245 -63 454 -219 552 -411 l27 -54
17 125 c26 188 29 173 -41 187 -33 6 -105 34 -161 62 -102 52 -206 88 -334
116 -38 8 -80 18 -92 20 -12 3 -25 0 -29 -6z"/>
<path d="M853 1798 c-19 -5 -33 -15 -33 -24 0 -10 6 -14 18 -10 54 15 62 18
62 26 0 15 -14 17 -47 8z"/>
<path d="M1112 1713 c-4 -105 -68 -250 -164 -371 l-50 -64 27 -28 c27 -28 28
-28 68 -14 62 22 188 92 221 122 l28 27 -6 105 c-4 58 -12 142 -18 188 l-11
82 -46 0 -47 0 -2 -47z"/>
<path d="M1416 1736 c-3 -11 -6 -43 -5 -71 l0 -50 18 35 c10 19 22 49 25 66 6
26 4 32 -13 37 -14 3 -21 -1 -25 -17z"/>
<path d="M572 1730 c-146 -43 -301 -146 -385 -255 -21 -28 -54 -84 -75 -125
l-37 -74 1 -131 c1 -100 6 -148 23 -210 25 -93 87 -224 132 -278 l32 -38 19
43 c11 24 24 65 30 91 10 46 8 53 -31 137 -44 94 -81 230 -81 295 0 57 26 149
57 208 52 94 177 198 319 264 68 31 74 36 74 63 0 35 4 34 -78 10z"/>
<path d="M1519 1693 c-16 -52 -57 -132 -86 -170 -21 -29 -24 -42 -21 -100 l3
-68 76 75 c54 54 86 96 112 149 49 97 48 114 -3 135 -58 23 -67 20 -81 -21z"/>
<path d="M868 1703 l-48 -14 0 -124 c0 -69 4 -125 9 -125 34 0 101 149 101
224 0 50 -9 55 -62 39z"/>
<path d="M1700 1623 c-23 -73 -94 -178 -177 -262 -46 -46 -83 -85 -83 -87 0
-1 13 -7 28 -12 16 -5 59 -28 97 -51 l67 -41 34 21 c84 52 175 198 192 311 8
52 7 59 -12 76 -37 34 -109 82 -122 82 -7 0 -18 -17 -24 -37z"/>
<path d="M622 1609 c-13 -5 -48 -25 -78 -45 l-54 -36 0 -72 c0 -40 3 -108 6
-150 8 -87 2 -85 106 -39 49 22 56 29 60 56 5 52 -3 297 -10 296 -4 0 -17 -4
-30 -10z"/>
<path d="M2182 1388 c-29 -230 -29 -230 -55 -226 -15 2 -34 27 -63 82 l-42 79
-28 -58 c-38 -76 -101 -146 -175 -190 l-59 -36 29 -42 c63 -92 111 -220 111
-295 0 -58 6 -63 57 -40 36 16 51 18 69 9 61 -28 25 -118 -80 -201 -52 -41
-66 -58 -76 -96 -27 -95 -121 -208 -226 -269 -60 -35 -166 -74 -244 -90 -58
-12 -16 -13 373 -14 l437 -1 0 785 c0 432 -1 785 -3 785 -1 0 -13 -82 -25
-182z"/>
<path d="M1911 1451 c-29 -114 -114 -246 -191 -297 -38 -26 -39 -26 -20 -46
27 -29 57 -18 126 44 65 60 118 138 144 212 17 48 17 52 2 79 -9 16 -24 35
-33 43 -14 12 -17 8 -28 -35z"/>
<path d="M389 1443 l-25 -28 8 -165 c5 -91 7 -255 6 -365 -3 -197 -3 -201 -32
-260 -16 -33 -46 -79 -68 -101 -39 -40 -39 -42 -25 -70 37 -70 103 -105 211
-111 101 -5 118 4 80 43 -66 71 -78 126 -89 424 -3 74 -8 185 -11 246 -5 81
-3 113 5 119 9 5 9 11 -1 22 -9 11 -14 58 -17 145 -1 70 -6 128 -10 128 -4 0
-19 -12 -32 -27z"/>
<path d="M280 1285 c-26 -75 -7 -292 30 -354 11 -18 2 325 -10 369 -6 24 -7
23 -20 -15z"/>
<path d="M1185 1255 c-27 -17 -80 -44 -117 -60 -79 -34 -82 -44 -6 -20 106 35
197 91 177 109 -2 2 -26 -11 -54 -29z"/>
<path d="M1410 1178 c0 -42 2 -44 46 -62 72 -29 158 -116 199 -200 31 -63 36
-85 46 -196 6 -69 8 -142 5 -163 -4 -20 -3 -37 0 -37 4 0 38 17 76 38 l70 37
-5 77 c-11 136 -76 294 -161 386 -69 75 -206 162 -255 162 -18 0 -21 -6 -21
-42z"/>
<path d="M1155 1143 c-44 -18 -87 -34 -96 -36 -16 -4 -16 -10 1 -76 30 -114
42 -257 30 -352 -5 -46 -10 -111 -10 -145 0 -61 0 -62 31 -68 61 -12 126 -7
133 10 7 19 5 428 -3 584 l-6 115 -80 -32z"/>
<path d="M550 1152 l-35 -17 -3 -135 c-2 -74 0 -185 3 -246 l7 -111 68 -36
c37 -21 70 -37 74 -37 8 0 8 321 -1 483 l-6 117 -36 0 c-20 0 -52 -8 -71 -18z"/>
<path d="M720 1127 c0 -17 5 -169 10 -337 12 -367 11 -370 -86 -468 l-62 -62
36 -30 c90 -74 263 -137 440 -161 107 -14 305 -6 386 16 144 40 253 118 315
226 17 30 31 57 31 60 0 4 -24 -1 -52 -12 -29 -10 -64 -20 -78 -23 -17 -3 -41
-27 -69 -66 l-43 -62 22 -20 c33 -31 11 -43 -78 -44 -42 0 -105 -6 -139 -13
-97 -21 -235 -11 -305 21 -194 89 -263 279 -275 755 -6 230 -6 231 -29 242
-23 10 -24 9 -24 -22z"/>
<path d="M835 918 c3 -90 10 -207 16 -262 5 -54 9 -104 9 -112 0 -23 38 -54
66 -54 l26 0 -7 93 c-9 128 -32 286 -51 359 -15 61 -49 138 -60 138 -3 0 -3
-73 1 -162z"/>
<path d="M1 528 l-1 -528 548 1 c479 1 538 3 472 14 -217 37 -374 107 -467
208 -43 47 -56 55 -117 70 -113 28 -206 100 -247 191 l-18 41 34 28 35 28 -54
63 c-89 106 -141 210 -169 342 -14 64 -15 34 -16 -458z"/>
<path d="M1487 938 l-79 -21 7 -141 c7 -157 22 -306 30 -314 3 -3 44 3 92 14
77 17 88 22 94 44 14 49 10 274 -6 333 -14 56 -41 108 -54 106 -3 -1 -41 -10
-84 -21z"/>
<path d="M1933 583 c-95 -72 -258 -140 -399 -166 -57 -11 -69 -16 -69 -33 0
-17 6 -19 50 -16 65 3 179 35 258 71 75 34 227 145 227 166 0 23 -14 18 -67
-22z"/>
<path d="M530 562 c0 -66 12 -94 46 -108 18 -8 42 -14 52 -14 18 0 42 37 42
63 0 7 -32 29 -70 50 l-70 38 0 -29z"/>
<path d="M884 418 c3 -18 10 -36 15 -41 16 -16 92 -26 193 -27 94 0 98 1 114
25 9 14 15 27 13 29 -4 4 -312 46 -333 46 -5 0 -6 -14 -2 -32z"/>
<path d="M595 390 c3 -5 11 -10 16 -10 6 0 7 5 4 10 -3 6 -11 10 -16 10 -6 0
-7 -4 -4 -10z"/>
<path d="M929 293 c11 -22 71 -80 71 -69 0 4 -9 25 -20 46 -14 27 -27 40 -41
40 -16 0 -18 -3 -10 -17z"/>
<path d="M1500 300 c0 -5 5 -10 10 -10 6 0 10 5 10 10 0 6 -4 10 -10 10 -5 0
-10 -4 -10 -10z"/>
<path d="M1035 273 c7 -32 51 -93 66 -93 13 0 12 3 -18 65 -29 59 -61 77 -48
28z"/>
<path d="M1120 283 c0 -7 12 -37 27 -68 l27 -55 66 0 c36 0 70 4 77 8 8 5 -8
26 -50 64 -51 45 -71 56 -105 60 -29 2 -42 0 -42 -9z"/>
</g>
</svg>
